# xmcd CD database file
#
# Track frame offsets:
#	150
#	10810
#	20230
#	31637
#	42730
#	52060
#	59772
#	68732
#	78135
#	88980
#	98745
#	108760
#	118787
#	128265
#	140022
#	151057
#	160257
#	171340
#
# Disc length: 2399 seconds
#
# Revision: 0
# Processed by: cddbd v1.5.2PL0 Copyright (c) Steve Scherf et al.
# Submitted via: CDex 1.70beta2
#
DISCID=ed095d12
DTITLE=Fats Domino - Greatest Hits
DYEAR=1992
DGENRE=Blues
TTITLE0=When The Saints Go Marching In
TTITLE1=I'm Walking
TTITLE2=Blueberry Hill
TTITLE3=Blue Monday
TTITLE4=I Still Love You
TTITLE5=Whole Lotta Loving
TTITLE6=Valley Of Tears
TTITLE7=I'm Gonna Be A Wheel Some Day
TTITLE8=I Want To Walk You Home
TTITLE9=My Blue Heaven
TTITLE10=The Rooster Song
TTITLE11=Ida Jane
TTITLE12=I'm Ready
TTITLE13=Sick And Tired
TTITLE14=When My Dreamboat Comes Home
TTITLE15=I've Been Around
TTITLE16=Don't You Know
TTITLE17=I'm In Love Again
EXTD=YEAR: 1992
EXTT0=
EXTT1=
EXTT2=
EXTT3=
EXTT4=
EXTT5=
EXTT6=
EXTT7=
EXTT8=
EXTT9=
EXTT10=
EXTT11=
EXTT12=
EXTT13=
EXTT14=
EXTT15=
EXTT16=
EXTT17=
PLAYORDER=
